<mxfile host="app.diagrams.net" modified="2021-01-05T14:31:41.909Z" agent="5.0 (Windows NT 10.0; Win64; x64) AppleWebKit/537.36 (KHTML, like Gecko) Chrome/87.0.4280.88 Safari/537.36" etag="8n4DNUiBjpcTS80FMTRn" version="14.1.8" type="github">
  <diagram id="B0D-UXwhzXQ90q90TpFZ" name="Page-1">
    <mxGraphModel dx="2889" dy="-37" grid="1" gridSize="10" guides="1" tooltips="1" connect="1" arrows="1" fold="1" page="1" pageScale="1" pageWidth="827" pageHeight="1169" math="0" shadow="0">
      <root>
        <mxCell id="0" />
        <mxCell id="1" parent="0" />
        <mxCell id="mkfIzjzVwH-Tw9_OUw3R-1" value="" style="shape=umlLifeline;participant=umlActor;perimeter=lifelinePerimeter;whiteSpace=wrap;html=1;container=1;collapsible=0;recursiveResize=0;verticalAlign=top;spacingTop=36;outlineConnect=0;" vertex="1" parent="1">
          <mxGeometry x="-600" y="1200" width="20" height="1220" as="geometry" />
        </mxCell>
        <mxCell id="mkfIzjzVwH-Tw9_OUw3R-2" value="generateUnit(type, amount)" style="html=1;verticalAlign=bottom;startArrow=oval;startFill=1;endArrow=block;startSize=8;" edge="1" parent="mkfIzjzVwH-Tw9_OUw3R-1" target="mkfIzjzVwH-Tw9_OUw3R-6">
          <mxGeometry width="60" relative="1" as="geometry">
            <mxPoint x="10" y="80" as="sourcePoint" />
            <mxPoint x="70" y="80" as="targetPoint" />
          </mxGeometry>
        </mxCell>
        <mxCell id="mkfIzjzVwH-Tw9_OUw3R-3" value="getUnitProfiles()" style="html=1;verticalAlign=bottom;endArrow=block;" edge="1" parent="mkfIzjzVwH-Tw9_OUw3R-1" target="mkfIzjzVwH-Tw9_OUw3R-6">
          <mxGeometry width="80" relative="1" as="geometry">
            <mxPoint x="10" y="470" as="sourcePoint" />
            <mxPoint x="130" y="470" as="targetPoint" />
          </mxGeometry>
        </mxCell>
        <mxCell id="mkfIzjzVwH-Tw9_OUw3R-4" value="getUnitProfiles: unitProfile[]" style="html=1;verticalAlign=bottom;endArrow=open;dashed=1;endSize=8;" edge="1" parent="mkfIzjzVwH-Tw9_OUw3R-1" source="mkfIzjzVwH-Tw9_OUw3R-6">
          <mxGeometry relative="1" as="geometry">
            <mxPoint x="90" y="510" as="sourcePoint" />
            <mxPoint x="10" y="510" as="targetPoint" />
          </mxGeometry>
        </mxCell>
        <mxCell id="mkfIzjzVwH-Tw9_OUw3R-5" value="battle()" style="html=1;verticalAlign=bottom;endArrow=block;" edge="1" parent="mkfIzjzVwH-Tw9_OUw3R-1" target="mkfIzjzVwH-Tw9_OUw3R-6">
          <mxGeometry width="80" relative="1" as="geometry">
            <mxPoint x="10" y="850" as="sourcePoint" />
            <mxPoint x="90" y="850" as="targetPoint" />
          </mxGeometry>
        </mxCell>
        <mxCell id="mkfIzjzVwH-Tw9_OUw3R-6" value="Profile" style="shape=umlLifeline;perimeter=lifelinePerimeter;whiteSpace=wrap;html=1;container=1;collapsible=0;recursiveResize=0;outlineConnect=0;" vertex="1" parent="1">
          <mxGeometry x="-450" y="1200" width="100" height="1250" as="geometry" />
        </mxCell>
        <mxCell id="mkfIzjzVwH-Tw9_OUw3R-7" value="requestUpgrade(ids[], upgradeType)" style="html=1;verticalAlign=bottom;endArrow=block;" edge="1" parent="mkfIzjzVwH-Tw9_OUw3R-6" target="mkfIzjzVwH-Tw9_OUw3R-8">
          <mxGeometry width="80" relative="1" as="geometry">
            <mxPoint x="50" y="580" as="sourcePoint" />
            <mxPoint x="130" y="580" as="targetPoint" />
          </mxGeometry>
        </mxCell>
        <mxCell id="mkfIzjzVwH-Tw9_OUw3R-8" value="Unit" style="shape=umlLifeline;perimeter=lifelinePerimeter;whiteSpace=wrap;html=1;container=1;collapsible=0;recursiveResize=0;outlineConnect=0;" vertex="1" parent="1">
          <mxGeometry x="-236" y="1200" width="100" height="1250" as="geometry" />
        </mxCell>
        <mxCell id="mkfIzjzVwH-Tw9_OUw3R-9" value="" style="html=1;points=[];perimeter=orthogonalPerimeter;" vertex="1" parent="mkfIzjzVwH-Tw9_OUw3R-8">
          <mxGeometry x="46" y="150" width="10" height="20" as="geometry" />
        </mxCell>
        <mxCell id="mkfIzjzVwH-Tw9_OUw3R-10" value="money = estimateCreationPrice(type,amount)" style="edgeStyle=orthogonalEdgeStyle;html=1;align=left;spacingLeft=2;endArrow=block;rounded=0;entryX=1;entryY=0;" edge="1" parent="mkfIzjzVwH-Tw9_OUw3R-8" target="mkfIzjzVwH-Tw9_OUw3R-9">
          <mxGeometry relative="1" as="geometry">
            <mxPoint x="51" y="130" as="sourcePoint" />
            <Array as="points">
              <mxPoint x="76" y="130" />
            </Array>
          </mxGeometry>
        </mxCell>
        <mxCell id="mkfIzjzVwH-Tw9_OUw3R-11" value="" style="html=1;points=[];perimeter=orthogonalPerimeter;" vertex="1" parent="mkfIzjzVwH-Tw9_OUw3R-8">
          <mxGeometry x="46" y="203" width="10" height="27" as="geometry" />
        </mxCell>
        <mxCell id="mkfIzjzVwH-Tw9_OUw3R-12" value="occupancy = estimateOccupation(type,amount)" style="edgeStyle=orthogonalEdgeStyle;html=1;align=left;spacingLeft=2;endArrow=block;rounded=0;entryX=1;entryY=0;" edge="1" parent="mkfIzjzVwH-Tw9_OUw3R-8" target="mkfIzjzVwH-Tw9_OUw3R-11">
          <mxGeometry relative="1" as="geometry">
            <mxPoint x="51" y="186" as="sourcePoint" />
            <Array as="points">
              <mxPoint x="76" y="186" />
            </Array>
          </mxGeometry>
        </mxCell>
        <mxCell id="mkfIzjzVwH-Tw9_OUw3R-13" value="" style="html=1;points=[];perimeter=orthogonalPerimeter;" vertex="1" parent="mkfIzjzVwH-Tw9_OUw3R-8">
          <mxGeometry x="46" y="625" width="10" height="40" as="geometry" />
        </mxCell>
        <mxCell id="mkfIzjzVwH-Tw9_OUw3R-14" value="money = estimateUpgradePrice(unitProfile[], upgradeType)" style="edgeStyle=orthogonalEdgeStyle;html=1;align=left;spacingLeft=2;endArrow=block;rounded=0;entryX=1;entryY=0;" edge="1" parent="mkfIzjzVwH-Tw9_OUw3R-8" target="mkfIzjzVwH-Tw9_OUw3R-13">
          <mxGeometry relative="1" as="geometry">
            <mxPoint x="51" y="605" as="sourcePoint" />
            <Array as="points">
              <mxPoint x="76" y="605" />
            </Array>
          </mxGeometry>
        </mxCell>
        <mxCell id="mkfIzjzVwH-Tw9_OUw3R-15" value="requestCreation(type, amount)" style="html=1;verticalAlign=bottom;endArrow=block;" edge="1" parent="1" source="mkfIzjzVwH-Tw9_OUw3R-6" target="mkfIzjzVwH-Tw9_OUw3R-8">
          <mxGeometry width="80" relative="1" as="geometry">
            <mxPoint x="-320" y="1350" as="sourcePoint" />
            <mxPoint x="-240" y="1350" as="targetPoint" />
            <Array as="points">
              <mxPoint x="-270" y="1310" />
            </Array>
          </mxGeometry>
        </mxCell>
        <mxCell id="mkfIzjzVwH-Tw9_OUw3R-16" value="ResourceProfile" style="shape=umlLifeline;perimeter=lifelinePerimeter;whiteSpace=wrap;html=1;container=1;collapsible=0;recursiveResize=0;outlineConnect=0;" vertex="1" parent="1">
          <mxGeometry x="49" y="1200" width="100" height="1260" as="geometry" />
        </mxCell>
        <mxCell id="mkfIzjzVwH-Tw9_OUw3R-17" value="UnitProfile" style="shape=umlLifeline;perimeter=lifelinePerimeter;whiteSpace=wrap;html=1;container=1;collapsible=0;recursiveResize=0;outlineConnect=0;" vertex="1" parent="1">
          <mxGeometry x="255" y="1200" width="100" height="1270" as="geometry" />
        </mxCell>
        <mxCell id="mkfIzjzVwH-Tw9_OUw3R-18" value="s = payCreation(money, occupancy)" style="html=1;verticalAlign=bottom;endArrow=block;" edge="1" parent="1">
          <mxGeometry width="80" relative="1" as="geometry">
            <mxPoint x="-186.5" y="1459.9999999999998" as="sourcePoint" />
            <mxPoint x="98.5" y="1459.9999999999998" as="targetPoint" />
            <Array as="points">
              <mxPoint x="-49.5" y="1460" />
            </Array>
          </mxGeometry>
        </mxCell>
        <mxCell id="mkfIzjzVwH-Tw9_OUw3R-19" value="createUnitInstances(type, amount)" style="html=1;verticalAlign=bottom;endArrow=block;" edge="1" parent="1">
          <mxGeometry width="80" relative="1" as="geometry">
            <mxPoint x="-186.07142857142844" y="1484" as="sourcePoint" />
            <mxPoint x="304.50000000000045" y="1484" as="targetPoint" />
            <Array as="points">
              <mxPoint x="-53" y="1484" />
            </Array>
          </mxGeometry>
        </mxCell>
        <mxCell id="mkfIzjzVwH-Tw9_OUw3R-20" value="requestCreation: s" style="html=1;verticalAlign=bottom;endArrow=open;dashed=1;endSize=8;" edge="1" parent="1">
          <mxGeometry x="-0.1244" y="-5" relative="1" as="geometry">
            <mxPoint x="-186.5" y="1542.9999999999998" as="sourcePoint" />
            <mxPoint x="-400.0714285714289" y="1542.9999999999998" as="targetPoint" />
            <mxPoint as="offset" />
          </mxGeometry>
        </mxCell>
        <mxCell id="mkfIzjzVwH-Tw9_OUw3R-21" value="generateUnit: s" style="html=1;verticalAlign=bottom;endArrow=open;dashed=1;endSize=8;" edge="1" parent="1">
          <mxGeometry x="-0.1244" y="-5" relative="1" as="geometry">
            <mxPoint x="-400" y="1557.9999999999998" as="sourcePoint" />
            <mxPoint x="-590.0014285714287" y="1557.9999999999998" as="targetPoint" />
            <mxPoint as="offset" />
          </mxGeometry>
        </mxCell>
        <mxCell id="mkfIzjzVwH-Tw9_OUw3R-22" value="s=0" style="shape=umlFrame;whiteSpace=wrap;html=1;" vertex="1" parent="1">
          <mxGeometry x="-249" y="1470" width="580" height="51" as="geometry" />
        </mxCell>
        <mxCell id="mkfIzjzVwH-Tw9_OUw3R-23" value="unitProfile[] = getUnitProfiles()" style="html=1;verticalAlign=bottom;endArrow=block;" edge="1" parent="1" target="mkfIzjzVwH-Tw9_OUw3R-17">
          <mxGeometry width="80" relative="1" as="geometry">
            <mxPoint x="-399.5" y="1689.9999999999995" as="sourcePoint" />
            <mxPoint x="-210" y="1690" as="targetPoint" />
          </mxGeometry>
        </mxCell>
        <mxCell id="mkfIzjzVwH-Tw9_OUw3R-24" value="upgrade(ids[], upgradeType)" style="html=1;verticalAlign=bottom;endArrow=block;" edge="1" parent="1">
          <mxGeometry width="80" relative="1" as="geometry">
            <mxPoint x="-590" y="1753" as="sourcePoint" />
            <mxPoint x="-400.5" y="1753" as="targetPoint" />
          </mxGeometry>
        </mxCell>
        <mxCell id="mkfIzjzVwH-Tw9_OUw3R-25" value="unitProfile[] = getUnitProfiles(ids[])" style="html=1;verticalAlign=bottom;endArrow=block;" edge="1" parent="1" source="mkfIzjzVwH-Tw9_OUw3R-8">
          <mxGeometry width="80" relative="1" as="geometry">
            <mxPoint x="-190.00333333333347" y="1790" as="sourcePoint" />
            <mxPoint x="300.8299999999995" y="1789.9999999999995" as="targetPoint" />
          </mxGeometry>
        </mxCell>
        <mxCell id="mkfIzjzVwH-Tw9_OUw3R-26" value="s = payUpgrade(money)" style="html=1;verticalAlign=bottom;endArrow=block;" edge="1" parent="1">
          <mxGeometry width="80" relative="1" as="geometry">
            <mxPoint x="-186.5" y="1889.9999999999995" as="sourcePoint" />
            <mxPoint x="98.5" y="1889.9999999999995" as="targetPoint" />
            <Array as="points">
              <mxPoint x="-49.5" y="1890" />
            </Array>
          </mxGeometry>
        </mxCell>
        <mxCell id="mkfIzjzVwH-Tw9_OUw3R-27" value="upgradeUnitProfiles(ids[], upgradeType)" style="html=1;verticalAlign=bottom;endArrow=block;" edge="1" parent="1">
          <mxGeometry width="80" relative="1" as="geometry">
            <mxPoint x="-186.07142857142844" y="1926" as="sourcePoint" />
            <mxPoint x="304.50000000000045" y="1926" as="targetPoint" />
            <Array as="points">
              <mxPoint x="-53" y="1926" />
            </Array>
          </mxGeometry>
        </mxCell>
        <mxCell id="mkfIzjzVwH-Tw9_OUw3R-28" value="s=0" style="shape=umlFrame;whiteSpace=wrap;html=1;" vertex="1" parent="1">
          <mxGeometry x="-260" y="1900" width="580" height="50" as="geometry" />
        </mxCell>
        <mxCell id="mkfIzjzVwH-Tw9_OUw3R-29" value="requestUpgrade: s" style="html=1;verticalAlign=bottom;endArrow=open;dashed=1;endSize=8;" edge="1" parent="1">
          <mxGeometry x="-0.0308" relative="1" as="geometry">
            <mxPoint x="-186.5" y="1979.9999999999995" as="sourcePoint" />
            <mxPoint x="-400.0714285714289" y="1979.9999999999995" as="targetPoint" />
            <mxPoint as="offset" />
          </mxGeometry>
        </mxCell>
        <mxCell id="mkfIzjzVwH-Tw9_OUw3R-30" value="requestUpgrade: s" style="html=1;verticalAlign=bottom;endArrow=open;dashed=1;endSize=8;" edge="1" parent="1">
          <mxGeometry x="-0.1244" y="-5" relative="1" as="geometry">
            <mxPoint x="-400" y="1994.9999999999995" as="sourcePoint" />
            <mxPoint x="-590.0014285714287" y="1994.9999999999995" as="targetPoint" />
            <mxPoint as="offset" />
          </mxGeometry>
        </mxCell>
        <mxCell id="mkfIzjzVwH-Tw9_OUw3R-31" value="Battle" style="shape=umlLifeline;perimeter=lifelinePerimeter;whiteSpace=wrap;html=1;container=1;collapsible=0;recursiveResize=0;outlineConnect=0;" vertex="1" parent="1">
          <mxGeometry x="420" y="1200" width="100" height="1270" as="geometry" />
        </mxCell>
        <mxCell id="mkfIzjzVwH-Tw9_OUw3R-32" value="" style="html=1;points=[];perimeter=orthogonalPerimeter;" vertex="1" parent="mkfIzjzVwH-Tw9_OUw3R-31">
          <mxGeometry x="46" y="950" width="10" height="40" as="geometry" />
        </mxCell>
        <mxCell id="mkfIzjzVwH-Tw9_OUw3R-33" value="res, changedUnitProfile[] = calculateResult(unitProfile[])" style="edgeStyle=orthogonalEdgeStyle;html=1;align=left;spacingLeft=2;endArrow=block;rounded=0;entryX=1;entryY=0;exitX=0.5;exitY=0.795;exitDx=0;exitDy=0;exitPerimeter=0;" edge="1" parent="mkfIzjzVwH-Tw9_OUw3R-31" source="mkfIzjzVwH-Tw9_OUw3R-31" target="mkfIzjzVwH-Tw9_OUw3R-32">
          <mxGeometry relative="1" as="geometry">
            <mxPoint x="55" y="930" as="sourcePoint" />
            <Array as="points">
              <mxPoint x="80" y="930" />
              <mxPoint x="80" y="950" />
            </Array>
          </mxGeometry>
        </mxCell>
        <mxCell id="mkfIzjzVwH-Tw9_OUw3R-34" value="updateBattleProfile(res=&quot;lost&quot;)" style="html=1;verticalAlign=bottom;endArrow=block;" edge="1" parent="mkfIzjzVwH-Tw9_OUw3R-31" target="mkfIzjzVwH-Tw9_OUw3R-36">
          <mxGeometry width="80" relative="1" as="geometry">
            <mxPoint x="50" y="1060" as="sourcePoint" />
            <mxPoint x="130" y="1060" as="targetPoint" />
          </mxGeometry>
        </mxCell>
        <mxCell id="mkfIzjzVwH-Tw9_OUw3R-35" value="battle()" style="html=1;verticalAlign=bottom;endArrow=block;" edge="1" parent="1" target="mkfIzjzVwH-Tw9_OUw3R-31">
          <mxGeometry width="80" relative="1" as="geometry">
            <mxPoint x="-399.5" y="2079.9999999999995" as="sourcePoint" />
            <mxPoint x="-210" y="2080" as="targetPoint" />
          </mxGeometry>
        </mxCell>
        <mxCell id="mkfIzjzVwH-Tw9_OUw3R-36" value="BattleProfile" style="shape=umlLifeline;perimeter=lifelinePerimeter;whiteSpace=wrap;html=1;container=1;collapsible=0;recursiveResize=0;outlineConnect=0;" vertex="1" parent="1">
          <mxGeometry x="620" y="1200" width="100" height="1280" as="geometry" />
        </mxCell>
        <mxCell id="mkfIzjzVwH-Tw9_OUw3R-37" value="unitProfile[] = getUnitProfiles()" style="html=1;verticalAlign=bottom;endArrow=block;entryX=0.507;entryY=0.829;entryDx=0;entryDy=0;entryPerimeter=0;" edge="1" parent="1">
          <mxGeometry width="80" relative="1" as="geometry">
            <mxPoint x="469.5" y="2118.64" as="sourcePoint" />
            <mxPoint x="305.6999999999998" y="2118.64" as="targetPoint" />
          </mxGeometry>
        </mxCell>
        <mxCell id="mkfIzjzVwH-Tw9_OUw3R-38" value="res=&quot;lost&quot;" style="shape=umlFrame;whiteSpace=wrap;html=1;" vertex="1" parent="1">
          <mxGeometry x="200" y="2121" width="580" height="159" as="geometry" />
        </mxCell>
        <mxCell id="mkfIzjzVwH-Tw9_OUw3R-39" value="s = changeUnitProfiles(unitProfile[])" style="html=1;verticalAlign=bottom;endArrow=block;entryX=0.507;entryY=0.829;entryDx=0;entryDy=0;entryPerimeter=0;" edge="1" parent="1">
          <mxGeometry width="80" relative="1" as="geometry">
            <mxPoint x="471.8000000000002" y="2219.9999999999995" as="sourcePoint" />
            <mxPoint x="308" y="2219.9999999999995" as="targetPoint" />
          </mxGeometry>
        </mxCell>
        <mxCell id="mkfIzjzVwH-Tw9_OUw3R-40" value="병력 생산" style="html=1;" vertex="1" parent="1">
          <mxGeometry x="-750" y="1280" width="140" height="50" as="geometry" />
        </mxCell>
        <mxCell id="mkfIzjzVwH-Tw9_OUw3R-41" value="병력 Type 업그레이드" style="html=1;" vertex="1" parent="1">
          <mxGeometry x="-750" y="1660" width="140" height="50" as="geometry" />
        </mxCell>
        <mxCell id="mkfIzjzVwH-Tw9_OUw3R-42" value="전투 개시" style="html=1;" vertex="1" parent="1">
          <mxGeometry x="-740" y="2050" width="140" height="50" as="geometry" />
        </mxCell>
        <mxCell id="mkfIzjzVwH-Tw9_OUw3R-43" value="battle: res" style="html=1;verticalAlign=bottom;endArrow=open;dashed=1;endSize=8;" edge="1" parent="1" source="mkfIzjzVwH-Tw9_OUw3R-31">
          <mxGeometry x="-0.1501" y="-10" relative="1" as="geometry">
            <mxPoint x="-400" y="2290" as="sourcePoint" />
            <mxPoint x="-400" y="2289.9999999999995" as="targetPoint" />
            <mxPoint as="offset" />
          </mxGeometry>
        </mxCell>
        <mxCell id="mkfIzjzVwH-Tw9_OUw3R-44" value="battle: res" style="html=1;verticalAlign=bottom;endArrow=open;dashed=1;endSize=8;" edge="1" parent="1">
          <mxGeometry x="-0.1501" y="-10" relative="1" as="geometry">
            <mxPoint x="-400" y="2319.9999999999995" as="sourcePoint" />
            <mxPoint x="-590" y="2319.9999999999995" as="targetPoint" />
            <mxPoint as="offset" />
          </mxGeometry>
        </mxCell>
      </root>
    </mxGraphModel>
  </diagram>
</mxfile>
